<svg width="163" height="20" viewBox="0 0 163 20" fill="none" xmlns="http://www.w3.org/2000/svg">
<path d="M5.464 1.336C7.304 1.336 8.768 1.712 9.856 2.464C10.944 3.2 11.488 4.304 11.488 5.776C11.488 6.864 11.216 7.776 10.672 8.512C10.144 9.232 9.416 9.776 8.488 10.144C7.576 10.496 6.528 10.672 5.344 10.672L4.792 8.8C6.248 8.8 7.536 9 8.656 9.4C9.792 9.8 10.688 10.376 11.344 11.128C12 11.864 12.328 12.752 12.328 13.792C12.328 14.752 12.152 15.568 11.8 16.24C11.464 16.896 11 17.432 10.408 17.848C9.832 18.248 9.176 18.544 8.44 18.736C7.704 18.912 6.944 19 6.16 19H0.28V1.336H5.464ZM5.872 8.56C6.56 8.56 7.064 8.352 7.384 7.936C7.72 7.52 7.888 7.048 7.888 6.52C7.888 5.912 7.68 5.456 7.264 5.152C6.864 4.848 6.32 4.696 5.632 4.696H3.76V8.56H5.872ZM5.992 15.76C6.504 15.76 6.968 15.696 7.384 15.568C7.8 15.424 8.128 15.208 8.368 14.92C8.608 14.616 8.728 14.24 8.728 13.792C8.728 13.28 8.584 12.896 8.296 12.64C8.008 12.368 7.632 12.184 7.168 12.088C6.72 11.976 6.248 11.92 5.752 11.92H3.76V15.76H5.992ZM33.0751 1.336V19H29.5951V11.824H21.6991V19H18.2191V1.336H21.6991V8.464H29.5951V1.336H33.0751ZM45.3773 1.336C46.4813 1.336 47.4653 1.48 48.3293 1.768C49.1933 2.04 49.9133 2.44 50.4893 2.968C51.0813 3.48 51.5293 4.104 51.8333 4.84C52.1373 5.56 52.2893 6.376 52.2893 7.288C52.2893 8.008 52.1773 8.728 51.9533 9.448C51.7453 10.168 51.3933 10.824 50.8973 11.416C50.4173 12.008 49.7773 12.488 48.9773 12.856C48.1773 13.208 47.1853 13.384 46.0013 13.384H43.5053V19H40.0253V1.336H45.3773ZM45.9773 10.024C46.5053 10.024 46.9453 9.936 47.2973 9.76C47.6493 9.584 47.9213 9.36 48.1133 9.088C48.3213 8.816 48.4653 8.536 48.5453 8.248C48.6413 7.944 48.6893 7.664 48.6893 7.408C48.6893 7.216 48.6573 6.976 48.5933 6.688C48.5453 6.384 48.4333 6.08 48.2573 5.776C48.0813 5.472 47.8093 5.216 47.4413 5.008C47.0893 4.8 46.6093 4.696 46.0013 4.696H43.5053V10.024H45.9773ZM49.2413 12.184L53.6093 19H49.5533L45.0893 12.28L49.2413 12.184ZM57.1891 10.192C57.1891 8.976 57.4211 7.824 57.8851 6.736C58.3491 5.648 58.9891 4.688 59.8051 3.856C60.6371 3.008 61.5971 2.344 62.6851 1.864C63.7731 1.384 64.9411 1.144 66.1891 1.144C67.4211 1.144 68.5811 1.384 69.6691 1.864C70.7571 2.344 71.7171 3.008 72.5491 3.856C73.3971 4.688 74.0531 5.648 74.5171 6.736C74.9971 7.824 75.2371 8.976 75.2371 10.192C75.2371 11.44 74.9971 12.608 74.5171 13.696C74.0531 14.784 73.3971 15.744 72.5491 16.576C71.7171 17.392 70.7571 18.032 69.6691 18.496C68.5811 18.96 67.4211 19.192 66.1891 19.192C64.9411 19.192 63.7731 18.96 62.6851 18.496C61.5971 18.032 60.6371 17.392 59.8051 16.576C58.9891 15.744 58.3491 14.784 57.8851 13.696C57.4211 12.608 57.1891 11.44 57.1891 10.192ZM60.7891 10.192C60.7891 10.976 60.9251 11.712 61.1971 12.4C61.4851 13.072 61.8771 13.672 62.3731 14.2C62.8851 14.712 63.4691 15.112 64.1251 15.4C64.7971 15.688 65.5251 15.832 66.3091 15.832C67.0611 15.832 67.7571 15.688 68.3971 15.4C69.0531 15.112 69.6211 14.712 70.1011 14.2C70.5811 13.672 70.9571 13.072 71.2291 12.4C71.5011 11.712 71.6371 10.976 71.6371 10.192C71.6371 9.392 71.4931 8.648 71.2051 7.96C70.9331 7.272 70.5491 6.672 70.0531 6.16C69.5731 5.632 69.0051 5.224 68.3491 4.936C67.6931 4.648 66.9811 4.504 66.2131 4.504C65.4451 4.504 64.7331 4.648 64.0771 4.936C63.4211 5.224 62.8451 5.632 62.3491 6.16C61.8531 6.672 61.4691 7.272 61.1971 7.96C60.9251 8.648 60.7891 9.392 60.7891 10.192ZM81.1066 19V0.615999H81.1306L90.9466 14.536L89.4586 14.2L99.2506 0.615999H99.2986V19H95.8186V8.464L96.0346 10.264L90.0586 18.76H90.0106L83.8666 10.264L84.4666 8.608V19H81.1066ZM104.272 19L112.24 0.639999H112.432L120.4 19H116.368L111.28 6.088L113.8 4.36L107.704 19H104.272ZM109.72 12.616H115.024L116.248 15.544H108.64L109.72 12.616ZM123.077 10.192C123.077 8.976 123.309 7.824 123.773 6.736C124.237 5.648 124.877 4.688 125.693 3.856C126.525 3.008 127.485 2.344 128.573 1.864C129.661 1.384 130.829 1.144 132.077 1.144C133.309 1.144 134.469 1.384 135.557 1.864C136.645 2.344 137.605 3.008 138.437 3.856C139.285 4.688 139.941 5.648 140.405 6.736C140.885 7.824 141.125 8.976 141.125 10.192C141.125 11.44 140.885 12.608 140.405 13.696C139.941 14.784 139.285 15.744 138.437 16.576C137.605 17.392 136.645 18.032 135.557 18.496C134.469 18.96 133.309 19.192 132.077 19.192C130.829 19.192 129.661 18.96 128.573 18.496C127.485 18.032 126.525 17.392 125.693 16.576C124.877 15.744 124.237 14.784 123.773 13.696C123.309 12.608 123.077 11.44 123.077 10.192ZM126.677 10.192C126.677 10.976 126.813 11.712 127.085 12.4C127.373 13.072 127.765 13.672 128.261 14.2C128.773 14.712 129.357 15.112 130.013 15.4C130.685 15.688 131.413 15.832 132.197 15.832C132.949 15.832 133.645 15.688 134.285 15.4C134.941 15.112 135.509 14.712 135.989 14.2C136.469 13.672 136.845 13.072 137.117 12.4C137.389 11.712 137.525 10.976 137.525 10.192C137.525 9.392 137.381 8.648 137.093 7.96C136.821 7.272 136.437 6.672 135.941 6.16C135.461 5.632 134.893 5.224 134.237 4.936C133.581 4.648 132.869 4.504 132.101 4.504C131.333 4.504 130.621 4.648 129.965 4.936C129.309 5.224 128.733 5.632 128.237 6.16C127.741 6.672 127.357 7.272 127.085 7.96C126.813 8.648 126.677 9.392 126.677 10.192ZM162.81 19.72L149.418 7.624L150.45 8.2L150.522 19H146.994V0.639999H147.138L160.242 12.688L159.474 12.352L159.402 1.336H162.906V19.72H162.81Z" fill="white"/>
</svg>
